<svg width="93" height="35" viewBox="0 0 93 35" fill="none" xmlns="http://www.w3.org/2000/svg">
<path d="M20.9635 21.7292C20.526 20.4896 19.6267 19.4931 18.2656 18.7396C16.9045 17.9861 14.9965 17.6094 12.5417 17.6094C10.0868 17.6094 8.17881 17.9861 6.8177 18.7396C5.45659 19.4931 4.54513 20.4896 4.08333 21.7292H20.9635ZM1.45833 23.9167C1.45833 22.75 1.671 21.6502 2.09635 20.6172C2.5217 19.5842 3.1901 18.6849 4.10156 17.9193C5.01302 17.1537 6.16753 16.546 7.5651 16.0964C8.96267 15.6467 10.6337 15.4219 12.5781 15.4219C14.4983 15.4219 16.151 15.6467 17.5365 16.0964C18.9219 16.546 20.0703 17.1537 20.9818 17.9193C21.8932 18.6849 22.5616 19.5842 22.987 20.6172C23.4123 21.6502 23.625 22.75 23.625 23.9167H1.45833ZM1.45833 28.5833V26.3958H23.625V28.5833H1.45833ZM25.8125 33.5417V31.3542H28.9479L31.026 10.2083H16.5156L16.2604 8.02084H23.7344V1.45834H25.9219V8.02084H33.5417L31.099 31.3542C31.026 31.9861 30.7648 32.5087 30.3151 32.9219C29.8654 33.3351 29.3003 33.5417 28.6198 33.5417H25.8125ZM25.8125 31.3542H28.9479H25.8125ZM2.55208 33.5417C2.26041 33.5417 2.0052 33.4323 1.78645 33.2135C1.5677 32.9948 1.45833 32.7396 1.45833 32.4479V31.3542H23.625V32.4479C23.625 32.7396 23.5156 32.9948 23.2969 33.2135C23.0781 33.4323 22.8229 33.5417 22.5312 33.5417H2.55208Z" fill="#6D70FD"/>
<path d="M40.42 10.8C40.42 9.976 40.604 9.24 40.972 8.592C41.348 7.936 41.856 7.428 42.496 7.068C43.144 6.7 43.868 6.516 44.668 6.516C45.604 6.516 46.424 6.756 47.128 7.236C47.832 7.716 48.324 8.38 48.604 9.228H46.672C46.48 8.828 46.208 8.528 45.856 8.328C45.512 8.128 45.112 8.028 44.656 8.028C44.168 8.028 43.732 8.144 43.348 8.376C42.972 8.6 42.676 8.92 42.46 9.336C42.252 9.752 42.148 10.24 42.148 10.8C42.148 11.352 42.252 11.84 42.46 12.264C42.676 12.68 42.972 13.004 43.348 13.236C43.732 13.46 44.168 13.572 44.656 13.572C45.112 13.572 45.512 13.472 45.856 13.272C46.208 13.064 46.48 12.76 46.672 12.36H48.604C48.324 13.216 47.832 13.884 47.128 14.364C46.432 14.836 45.612 15.072 44.668 15.072C43.868 15.072 43.144 14.892 42.496 14.532C41.856 14.164 41.348 13.656 40.972 13.008C40.604 12.36 40.42 11.624 40.42 10.8ZM49.6069 11.652C49.6069 10.98 49.7389 10.384 50.0029 9.864C50.2749 9.344 50.6389 8.944 51.0949 8.664C51.5589 8.384 52.0749 8.244 52.6429 8.244C53.1389 8.244 53.5709 8.344 53.9389 8.544C54.3149 8.744 54.6149 8.996 54.8389 9.3V8.352H56.5309V15H54.8389V14.028C54.6229 14.34 54.3229 14.6 53.9389 14.808C53.5629 15.008 53.1269 15.108 52.6309 15.108C52.0709 15.108 51.5589 14.964 51.0949 14.676C50.6389 14.388 50.2749 13.984 50.0029 13.464C49.7389 12.936 49.6069 12.332 49.6069 11.652ZM54.8389 11.676C54.8389 11.268 54.7589 10.92 54.5989 10.632C54.4389 10.336 54.2229 10.112 53.9509 9.96C53.6789 9.8 53.3869 9.72 53.0749 9.72C52.7629 9.72 52.4749 9.796 52.2109 9.948C51.9469 10.1 51.7309 10.324 51.5629 10.62C51.4029 10.908 51.3229 11.252 51.3229 11.652C51.3229 12.052 51.4029 12.404 51.5629 12.708C51.7309 13.004 51.9469 13.232 52.2109 13.392C52.4829 13.552 52.7709 13.632 53.0749 13.632C53.3869 13.632 53.6789 13.556 53.9509 13.404C54.2229 13.244 54.4389 13.02 54.5989 12.732C54.7589 12.436 54.8389 12.084 54.8389 11.676ZM61.8558 8.256C62.6478 8.256 63.2878 8.508 63.7758 9.012C64.2638 9.508 64.5078 10.204 64.5078 11.1V15H62.8278V11.328C62.8278 10.8 62.6958 10.396 62.4318 10.116C62.1678 9.828 61.8078 9.684 61.3518 9.684C60.8878 9.684 60.5198 9.828 60.2478 10.116C59.9838 10.396 59.8518 10.8 59.8518 11.328V15H58.1718V8.352H59.8518V9.18C60.0758 8.892 60.3598 8.668 60.7038 8.508C61.0558 8.34 61.4398 8.256 61.8558 8.256ZM68.0613 9.732V12.948C68.0613 13.172 68.1133 13.336 68.2173 13.44C68.3293 13.536 68.5133 13.584 68.7693 13.584H69.5493V15H68.4933C67.0773 15 66.3693 14.312 66.3693 12.936V9.732H65.5773V8.352H66.3693V6.708H68.0613V8.352H69.5493V9.732H68.0613ZM76.9377 11.532C76.9377 11.772 76.9217 11.988 76.8897 12.18H72.0297C72.0697 12.66 72.2377 13.036 72.5337 13.308C72.8297 13.58 73.1937 13.716 73.6257 13.716C74.2497 13.716 74.6937 13.448 74.9577 12.912H76.7697C76.5777 13.552 76.2097 14.08 75.6657 14.496C75.1217 14.904 74.4537 15.108 73.6617 15.108C73.0217 15.108 72.4457 14.968 71.9337 14.688C71.4297 14.4 71.0337 13.996 70.7457 13.476C70.4657 12.956 70.3257 12.356 70.3257 11.676C70.3257 10.988 70.4657 10.384 70.7457 9.864C71.0257 9.344 71.4177 8.944 71.9217 8.664C72.4257 8.384 73.0057 8.244 73.6617 8.244C74.2937 8.244 74.8577 8.38 75.3537 8.652C75.8577 8.924 76.2457 9.312 76.5177 9.816C76.7977 10.312 76.9377 10.884 76.9377 11.532ZM75.1977 11.052C75.1897 10.62 75.0337 10.276 74.7297 10.02C74.4257 9.756 74.0537 9.624 73.6137 9.624C73.1977 9.624 72.8457 9.752 72.5577 10.008C72.2777 10.256 72.1057 10.604 72.0417 11.052H75.1977ZM84.3439 11.532C84.3439 11.772 84.3279 11.988 84.2959 12.18H79.4359C79.4759 12.66 79.6439 13.036 79.9399 13.308C80.2359 13.58 80.5999 13.716 81.0319 13.716C81.6559 13.716 82.0999 13.448 82.3639 12.912H84.1759C83.9839 13.552 83.6159 14.08 83.0719 14.496C82.5279 14.904 81.8599 15.108 81.0679 15.108C80.4279 15.108 79.8519 14.968 79.3399 14.688C78.8359 14.4 78.4399 13.996 78.1519 13.476C77.8719 12.956 77.7319 12.356 77.7319 11.676C77.7319 10.988 77.8719 10.384 78.1519 9.864C78.4319 9.344 78.8239 8.944 79.3279 8.664C79.8319 8.384 80.4119 8.244 81.0679 8.244C81.6999 8.244 82.2639 8.38 82.7599 8.652C83.2639 8.924 83.6519 9.312 83.9239 9.816C84.2039 10.312 84.3439 10.884 84.3439 11.532ZM82.6039 11.052C82.5959 10.62 82.4399 10.276 82.1359 10.02C81.8319 9.756 81.4599 9.624 81.0199 9.624C80.6039 9.624 80.2519 9.752 79.9639 10.008C79.6839 10.256 79.5119 10.604 79.4479 11.052H82.6039ZM89.2542 8.256C90.0462 8.256 90.6862 8.508 91.1742 9.012C91.6622 9.508 91.9062 10.204 91.9062 11.1V15H90.2262V11.328C90.2262 10.8 90.0942 10.396 89.8302 10.116C89.5662 9.828 89.2062 9.684 88.7502 9.684C88.2862 9.684 87.9182 9.828 87.6462 10.116C87.3822 10.396 87.2502 10.8 87.2502 11.328V15H85.5702V8.352H87.2502V9.18C87.4742 8.892 87.7582 8.668 88.1022 8.508C88.4542 8.34 88.8382 8.256 89.2542 8.256Z" fill="#6D70FD"/>
<path d="M40.396 26.652C40.396 25.98 40.528 25.384 40.792 24.864C41.064 24.344 41.428 23.944 41.884 23.664C42.348 23.384 42.864 23.244 43.432 23.244C43.928 23.244 44.36 23.344 44.728 23.544C45.104 23.744 45.404 23.996 45.628 24.3V23.352H47.32V30H45.628V29.028C45.412 29.34 45.112 29.6 44.728 29.808C44.352 30.008 43.916 30.108 43.42 30.108C42.86 30.108 42.348 29.964 41.884 29.676C41.428 29.388 41.064 28.984 40.792 28.464C40.528 27.936 40.396 27.332 40.396 26.652ZM45.628 26.676C45.628 26.268 45.548 25.92 45.388 25.632C45.228 25.336 45.012 25.112 44.74 24.96C44.468 24.8 44.176 24.72 43.864 24.72C43.552 24.72 43.264 24.796 43 24.948C42.736 25.1 42.52 25.324 42.352 25.62C42.192 25.908 42.112 26.252 42.112 26.652C42.112 27.052 42.192 27.404 42.352 27.708C42.52 28.004 42.736 28.232 43 28.392C43.272 28.552 43.56 28.632 43.864 28.632C44.176 28.632 44.468 28.556 44.74 28.404C45.012 28.244 45.228 28.02 45.388 27.732C45.548 27.436 45.628 27.084 45.628 26.676ZM50.6408 24.312C50.8568 24.008 51.1528 23.756 51.5288 23.556C51.9128 23.348 52.3488 23.244 52.8368 23.244C53.4048 23.244 53.9168 23.384 54.3728 23.664C54.8368 23.944 55.2008 24.344 55.4648 24.864C55.7368 25.376 55.8728 25.972 55.8728 26.652C55.8728 27.332 55.7368 27.936 55.4648 28.464C55.2008 28.984 54.8368 29.388 54.3728 29.676C53.9168 29.964 53.4048 30.108 52.8368 30.108C52.3488 30.108 51.9168 30.008 51.5408 29.808C51.1728 29.608 50.8728 29.356 50.6408 29.052V33.168H48.9608V23.352H50.6408V24.312ZM54.1568 26.652C54.1568 26.252 54.0728 25.908 53.9048 25.62C53.7448 25.324 53.5288 25.1 53.2568 24.948C52.9928 24.796 52.7048 24.72 52.3928 24.72C52.0888 24.72 51.8008 24.8 51.5288 24.96C51.2648 25.112 51.0488 25.336 50.8808 25.632C50.7208 25.928 50.6408 26.276 50.6408 26.676C50.6408 27.076 50.7208 27.424 50.8808 27.72C51.0488 28.016 51.2648 28.244 51.5288 28.404C51.8008 28.556 52.0888 28.632 52.3928 28.632C52.7048 28.632 52.9928 28.552 53.2568 28.392C53.5288 28.232 53.7448 28.004 53.9048 27.708C54.0728 27.412 54.1568 27.06 54.1568 26.652ZM58.7736 24.312C58.9896 24.008 59.2856 23.756 59.6616 23.556C60.0456 23.348 60.4816 23.244 60.9696 23.244C61.5376 23.244 62.0496 23.384 62.5056 23.664C62.9696 23.944 63.3336 24.344 63.5976 24.864C63.8696 25.376 64.0056 25.972 64.0056 26.652C64.0056 27.332 63.8696 27.936 63.5976 28.464C63.3336 28.984 62.9696 29.388 62.5056 29.676C62.0496 29.964 61.5376 30.108 60.9696 30.108C60.4816 30.108 60.0496 30.008 59.6736 29.808C59.3056 29.608 59.0056 29.356 58.7736 29.052V33.168H57.0936V23.352H58.7736V24.312ZM62.2896 26.652C62.2896 26.252 62.2056 25.908 62.0376 25.62C61.8776 25.324 61.6616 25.1 61.3896 24.948C61.1256 24.796 60.8376 24.72 60.5256 24.72C60.2216 24.72 59.9336 24.8 59.6616 24.96C59.3976 25.112 59.1816 25.336 59.0136 25.632C58.8536 25.928 58.7736 26.276 58.7736 26.676C58.7736 27.076 58.8536 27.424 59.0136 27.72C59.1816 28.016 59.3976 28.244 59.6616 28.404C59.9336 28.556 60.2216 28.632 60.5256 28.632C60.8376 28.632 61.1256 28.552 61.3896 28.392C61.6616 28.232 61.8776 28.004 62.0376 27.708C62.2056 27.412 62.2896 27.06 62.2896 26.652Z" fill="#010101"/>
</svg>
