<svg width="33" height="33" viewBox="0 0 33 33" fill="none" xmlns="http://www.w3.org/2000/svg">
<path d="M19.9635 20.7292C19.526 19.4896 18.6267 18.4931 17.2656 17.7396C15.9045 16.9861 13.9965 16.6094 11.5417 16.6094C9.0868 16.6094 7.17881 16.9861 5.8177 17.7396C4.45659 18.4931 3.54513 19.4896 3.08333 20.7292H19.9635ZM0.458328 22.9167C0.458328 21.75 0.671002 20.6502 1.09635 19.6172C1.5217 18.5842 2.1901 17.6849 3.10156 16.9193C4.01302 16.1537 5.16753 15.546 6.5651 15.0964C7.96267 14.6467 9.63367 14.4219 11.5781 14.4219C13.4983 14.4219 15.151 14.6467 16.5365 15.0964C17.9219 15.546 19.0703 16.1537 19.9818 16.9193C20.8932 17.6849 21.5616 18.5842 21.987 19.6172C22.4123 20.6502 22.625 21.75 22.625 22.9167H0.458328ZM0.458328 27.5833V25.3958H22.625V27.5833H0.458328ZM24.8125 32.5417V30.3542H27.9479L30.026 9.20834H15.5156L15.2604 7.02084H22.7344V0.458344H24.9219V7.02084H32.5417L30.099 30.3542C30.026 30.9861 29.7648 31.5087 29.3151 31.9219C28.8654 32.3351 28.3003 32.5417 27.6198 32.5417H24.8125ZM24.8125 30.3542H27.9479H24.8125ZM1.55208 32.5417C1.26041 32.5417 1.0052 32.4323 0.786453 32.2135C0.567703 31.9948 0.458328 31.7396 0.458328 31.4479V30.3542H22.625V31.4479C22.625 31.7396 22.5156 31.9948 22.2969 32.2135C22.0781 32.4323 21.8229 32.5417 21.5312 32.5417H1.55208Z" fill="#6D70FD"/>
</svg>
